<svg width="508" height="258" viewBox="0 0 508 258" fill="none" xmlns="http://www.w3.org/2000/svg">
<rect width="508" height="258" rx="10" fill="#925FF0"/>
<path d="M237.537 127.37C237.158 127.751 236.868 128.211 236.687 128.718C236.506 129.224 236.439 129.764 236.491 130.299L236.473 130.281C236.526 130.911 236.441 131.545 236.224 132.138C236.007 132.732 235.663 133.271 235.216 133.718C234.769 134.165 234.23 134.509 233.636 134.726C233.043 134.943 232.409 135.028 231.779 134.975L231.797 134.993C231.044 134.923 230.287 135.087 229.63 135.462C228.973 135.838 228.448 136.407 228.127 137.092C227.805 137.777 227.703 138.545 227.833 139.29C227.964 140.035 228.321 140.722 228.857 141.257C229.392 141.792 230.079 142.149 230.825 142.278C231.57 142.408 232.337 142.305 233.022 141.983C233.707 141.661 234.275 141.136 234.65 140.478C235.026 139.821 235.189 139.064 235.118 138.311L235.137 138.329C235.084 137.699 235.169 137.065 235.386 136.472C235.603 135.878 235.947 135.339 236.394 134.892C236.841 134.445 237.38 134.101 237.974 133.884C238.567 133.667 239.201 133.582 239.831 133.635L239.812 133.617C240.427 133.672 241.047 133.571 241.613 133.324C242.179 133.076 242.673 132.689 243.05 132.199C243.427 131.71 243.674 131.133 243.769 130.522C243.863 129.911 243.802 129.287 243.591 128.706C243.38 128.125 243.025 127.607 242.56 127.2C242.096 126.793 241.536 126.509 240.932 126.376C240.329 126.243 239.702 126.264 239.109 126.438C238.516 126.612 237.976 126.932 237.54 127.37H237.537Z" fill="white"/>
<path d="M230.16 132.635L230.141 132.617C230.676 132.671 231.217 132.605 231.724 132.424C232.231 132.244 232.691 131.953 233.072 131.573C233.452 131.192 233.744 130.732 233.924 130.225C234.105 129.719 234.172 129.178 234.118 128.643L234.137 128.661C234.084 128.031 234.169 127.397 234.386 126.803C234.603 126.21 234.947 125.671 235.394 125.224C235.841 124.777 236.38 124.433 236.974 124.216C237.567 123.999 238.201 123.914 238.831 123.967L238.812 123.949C239.566 124.02 240.322 123.856 240.98 123.481C241.637 123.106 242.162 122.537 242.484 121.852C242.806 121.167 242.909 120.4 242.779 119.654C242.649 118.909 242.292 118.221 241.757 117.686C241.222 117.151 240.534 116.794 239.789 116.664C239.043 116.534 238.276 116.637 237.591 116.959C236.906 117.281 236.337 117.806 235.962 118.463C235.587 119.12 235.423 119.877 235.494 120.631L235.476 120.612C235.529 121.242 235.445 121.876 235.228 122.469C235.011 123.063 234.666 123.602 234.22 124.049C233.773 124.496 233.233 124.84 232.64 125.057C232.046 125.274 231.412 125.359 230.782 125.306L230.8 125.325C230.265 125.271 229.724 125.337 229.217 125.517C228.71 125.698 228.25 125.989 227.869 126.369C227.489 126.749 227.198 127.21 227.017 127.716C226.836 128.223 226.77 128.763 226.823 129.299L226.805 129.281C226.858 129.911 226.773 130.544 226.556 131.138C226.339 131.732 225.995 132.271 225.548 132.718C225.101 133.164 224.562 133.508 223.968 133.726C223.375 133.943 222.741 134.028 222.111 133.975L222.129 133.993C221.376 133.922 220.619 134.085 219.961 134.461C219.304 134.836 218.779 135.405 218.457 136.09C218.135 136.775 218.032 137.542 218.162 138.288C218.292 139.033 218.649 139.72 219.184 140.255C219.72 140.791 220.407 141.148 221.152 141.278C221.898 141.408 222.665 141.305 223.35 140.983C224.035 140.661 224.604 140.136 224.979 139.479C225.354 138.821 225.518 138.064 225.447 137.311L225.466 137.329C225.413 136.699 225.498 136.065 225.715 135.471C225.932 134.878 226.276 134.339 226.723 133.892C227.17 133.445 227.709 133.101 228.303 132.884C228.896 132.667 229.53 132.582 230.16 132.635Z" fill="white"/>
<path d="M223.458 130.628C223.837 130.247 224.127 129.787 224.308 129.28C224.489 128.774 224.555 128.234 224.503 127.699L224.522 127.717C224.469 127.087 224.554 126.453 224.771 125.859C224.988 125.265 225.333 124.726 225.78 124.279C226.227 123.832 226.766 123.488 227.36 123.271C227.954 123.054 228.588 122.969 229.218 123.023L229.199 123.005C229.952 123.075 230.709 122.912 231.366 122.537C232.023 122.162 232.548 121.593 232.87 120.908C233.192 120.223 233.294 119.456 233.164 118.711C233.034 117.966 232.677 117.279 232.142 116.744C231.607 116.209 230.92 115.852 230.175 115.722C229.43 115.592 228.663 115.694 227.978 116.016C227.293 116.338 226.725 116.863 226.349 117.52C225.974 118.177 225.811 118.934 225.881 119.687L225.863 119.669C225.916 120.299 225.831 120.933 225.614 121.526C225.397 122.12 225.053 122.659 224.606 123.106C224.159 123.553 223.62 123.897 223.026 124.114C222.433 124.331 221.799 124.416 221.169 124.363L221.187 124.381C220.572 124.326 219.952 124.427 219.386 124.675C218.82 124.923 218.326 125.309 217.949 125.799C217.573 126.289 217.326 126.866 217.231 127.477C217.137 128.087 217.198 128.712 217.409 129.292C217.621 129.873 217.975 130.391 218.44 130.798C218.905 131.206 219.465 131.489 220.068 131.622C220.671 131.755 221.299 131.734 221.892 131.56C222.485 131.386 223.024 131.066 223.46 130.628H223.458Z" fill="white"/>
<path d="M256.272 133.1V136H254.532C253.292 136 252.325 135.7 251.632 135.1C250.938 134.487 250.592 133.493 250.592 132.12V127.68H249.232V124.84H250.592V122.12H254.012V124.84H256.252V127.68H254.012V132.16C254.012 132.493 254.092 132.733 254.252 132.88C254.412 133.027 254.678 133.1 255.052 133.1H256.272ZM259.897 123.68C259.297 123.68 258.803 123.507 258.417 123.16C258.043 122.8 257.857 122.36 257.857 121.84C257.857 121.307 258.043 120.867 258.417 120.52C258.803 120.16 259.297 119.98 259.897 119.98C260.483 119.98 260.963 120.16 261.337 120.52C261.723 120.867 261.917 121.307 261.917 121.84C261.917 122.36 261.723 122.8 261.337 123.16C260.963 123.507 260.483 123.68 259.897 123.68ZM261.597 124.84V136H258.177V124.84H261.597ZM263.395 130.4C263.395 129.253 263.609 128.247 264.035 127.38C264.475 126.513 265.069 125.847 265.815 125.38C266.562 124.913 267.395 124.68 268.315 124.68C269.102 124.68 269.789 124.84 270.375 125.16C270.975 125.48 271.435 125.9 271.755 126.42V124.84H275.175V136H271.755V134.42C271.422 134.94 270.955 135.36 270.355 135.68C269.769 136 269.082 136.16 268.295 136.16C267.389 136.16 266.562 135.927 265.815 135.46C265.069 134.98 264.475 134.307 264.035 133.44C263.609 132.56 263.395 131.547 263.395 130.4ZM271.755 130.42C271.755 129.567 271.515 128.893 271.035 128.4C270.569 127.907 269.995 127.66 269.315 127.66C268.635 127.66 268.055 127.907 267.575 128.4C267.109 128.88 266.875 129.547 266.875 130.4C266.875 131.253 267.109 131.933 267.575 132.44C268.055 132.933 268.635 133.18 269.315 133.18C269.995 133.18 270.569 132.933 271.035 132.44C271.515 131.947 271.755 131.273 271.755 130.42ZM284.449 124.72C285.756 124.72 286.796 125.147 287.569 126C288.356 126.84 288.749 128 288.749 129.48V136H285.349V129.94C285.349 129.193 285.156 128.613 284.769 128.2C284.383 127.787 283.863 127.58 283.209 127.58C282.556 127.58 282.036 127.787 281.649 128.2C281.263 128.613 281.069 129.193 281.069 129.94V136H277.649V124.84H281.069V126.32C281.416 125.827 281.883 125.44 282.469 125.16C283.056 124.867 283.716 124.72 284.449 124.72Z" fill="white"/>
</svg>
